# AST/ASF file generated using VICON BodyLanguage
# -----------------------------------------------
:version 1.10
:name VICON
:units
  mass 1.0
  length 0.45
  angle deg
:documentation
   .ast/.asf automatically generated from VICON data using
   VICON BodyBuilder and BodyLanguage model FoxedUp or BRILLIANT.MOD
:root
   order TX TY TZ RX RY RZ
   axis XYZ
   position 0 0 0  
   orientation 0 0 0 
:bonedata
  begin
     id 1 
     name lhipjoint
     direction 0.54267 -0.795011 0.271047 
     length 2.39899 
     axis 0 0 0  XYZ
  end
  begin
     id 2 
     name lfemur
     direction 0.34202 -0.939693 0  
     length 7.49701  
     axis 0 0 20  XYZ
    dof rx ry rz
    limits (-160.0 20.0)
           (-70.0 70.0)
           (-60.0 70.0)
  end
  begin
     id 3 
     name ltibia
     direction 0.34202 -0.939693 0   
     length 8.1668   
     axis 0 0 20   XYZ
    dof rx
    limits (-10.0 170.0)
  end
  begin
     id 4 
     name lfoot
     direction 0.0736283 -0.202292 0.976554   
     length 2.13544   
     axis -90 7.62852e-016 20   XYZ
    dof rx rz
    limits (-45.0 90.0)
           (-70.0 20.0)
  end
  begin
     id 5 
     name ltoes
     direction 1.53557e-011 -4.22024e-011 1   
     length 1.07411   
     axis -90 7.62852e-016 20   XYZ
    dof rx
    limits (-90.0 20.0)
  end
  begin
     id 6 
     name rhipjoint
     direction -0.538061 -0.797813 0.272002   
     length 2.39057  
     axis 0 0 0  XYZ 
  end
  begin
     id 7 
     name rfemur
     direction -0.34202 -0.939693 0   
     length 7.50152   
     axis 0 0 -20   XYZ
    dof rx ry rz
    limits (-160.0 20.0)
           (-70.0 70.0)
           (-70.0 60.0)
  end
  begin
     id 8 
     name rtibia
     direction -0.34202 -0.939693 0   
     length 8.05793   
     axis 0 0 -20   XYZ
    dof rx
    limits (-10.0 170.0)
 end
 begin
     id 9 
     name rfoot
     direction -0.0765195 -0.210236 0.974652   
     length 2.28698  
     axis -90 -7.62852e-016 -20   XYZ
    dof rx rz
    limits (-45.0 90.0)
           (-20.0 70.0)
  end
  begin
     id 10 
     name rtoes
     direction -1.53542e-011 -4.21847e-011 1   
     length 1.14762   
     axis -90 -7.62852e-016 -20   XYZ
    dof rx
    limits (-90.0 20.0)
  end
  begin
     id 11 
     name lowerback
     direction -0.0217239 0.996592 -0.0795765   
     length 2.08176   
     axis 0 0 0   XYZ
    dof rx ry rz
    limits (-20.0 45.0)
           (-30.0 30.0)
           (-30.0 30.0)
  end
  begin
     id 12 
     name upperback
     direction -0.00563773 0.999651 -0.0258155   
     length 2.08898   
     axis 0 0 0   XYZ
    dof rx ry rz
    limits (-20.0 45.0)
           (-30.0 30.0)
           (-30.0 30.0)
  end
  begin
     id 13 
     name thorax
     direction 0.0032706 0.999923 0.0119599   
     length 2.0968   
     axis 0 0 0   XYZ
    dof rx ry rz
    limits (-20.0 45.0)
           (-30.0 30.0)
           (-30.0 30.0)
  end
  begin
     id 14 
     name lowerneck
     direction -0.0285886 0.99568 0.0883427   
     length 1.81272   
     axis 0 0 0   XYZ
    dof rx ry rz
    limits (-20.0 45.0)
           (-30.0 30.0)
           (-30.0 30.0)
  end
  begin
     id 15 
     name upperneck
     direction 0.0807535 0.97985 -0.18268   
     length 1.82518   
     axis 0 0 0   XYZ
    dof rx ry rz
    limits (-20.0 45.0)
           (-30.0 30.0)
           (-30.0 30.0)
  end
  begin
     id 16
     name head
     direction 0.0236605 0.997053 -0.0729767  
     length 1.84443  
     axis 0 0 0   XYZ
    dof rx ry rz
    limits (-20.0 45.0)
           (-30.0 30.0)
           (-30.0 30.0)
  end
  begin
     id 17 
     name lclavicle
     direction 0.918986 0.39378 -0.0200683  
     length 3.27822  
     axis 0 0 0   XYZ
    dof ry rz
    limits (-20.0 10.0)
           (0.0 20.0)
  end
  begin
     id 18 
     name lhumerus
     direction 1 -4.4897e-011 2.09544e-027   
     length 5.5568   
     axis 180 -30 -90   XYZ
    dof rx ry rz
    limits (-60.0 90.0)
           (-90.0 90.0)
           (-90.0 90.0)
  end
  begin
     id 19
     name lradius
     direction 1 -4.48957e-011 -1.27696e-026   
     length 3.63979   
     axis 180 -30 -90   XYZ
    dof rx
    limits (-10.0 170.0)
  end
  begin
     id 20
     name lwrist
     direction 1 -4.49001e-011 -1.49001e-026   
     length 1.8199   
     axis 9.0955e-015 90 90   XYZ
    dof ry
    limits (-180.0 0.0)
 end
  begin
     id 21 
     name lhand
     direction 1 -4.48709e-011 -2.9758e-026   
     length 0.569419   
     axis 1.90115e-014 90 90   XYZ
    dof rx rz
    limits (-90.0 90.0)
           (-45.0 45.0)
  end
  begin
     id 22 
     name lfingers
     direction 1 -4.49175e-011 -5.96505e-026   
     length 0.45908   
     axis 3.80223e-014 90 90   XYZ
    dof rx
    limits (0.0 90.0)
  end
  begin
     id 23
     name lthumb
     direction 0.707107 -6.34864e-011 0.707107   
     length 0.65915   
     axis -90 45 -3.84942e-014   XYZ
    dof rx rz
    limits (-45.0 45.0)
           (-45.0 45.0)
  end
  begin
     id 24 
     name rclavicle
     direction -0.911913 0.396426 -0.106115   
     length 3.46301  
     axis 0 0 0   XYZ 
    dof ry rz
    limits (-10.0 20.0)
           (-20.0 0.0)
  end
  begin
     id 25 
     name rhumerus
     direction -1 -4.48965e-011 7.78516e-028  
     length 5.34339   
     axis 180 30 90   XYZ
    dof rx ry rz
    limits (-90.0 60.0)
           (-90.0 90.0)
           (-90.0 90.0)
  end
  begin
     id 26 
     name rradius
     direction -1 -4.48948e-011 -5.79823e-027   
     length 3.65101   
     axis 180 30 90   XYZ
    dof rx
    limits (-10.0 170.0)
  end
  begin
     id 27 
     name rwrist
     direction -1 -4.48995e-011 -1.48996e-026   
     length 1.8255   
     axis 9.0955e-015 -90 -90   XYZ
    dof ry
    limits (-180.0 0.0)
  end
  begin
     id 28
     name rhand
     direction -1 -4.48957e-011 -2.97937e-026   
     length 0.694249   
     axis 1.90115e-014 -90 -90   XYZ
    dof rx rz
    limits (-90.0 90.0)
           (-45.0 45.0)
  end
  begin
     id 29
     name rfingers
     direction -1 -4.4898e-011 -5.95943e-026   
     length 0.559721   
     axis 3.80223e-014 -90 -90   XYZ
    dof rx
    limits (0.0 90.0)
  end
  begin
     id 30
     name rthumb
     direction -0.707107 -6.34969e-011 0.707107   
     length 0.803651   
     axis -90 -45 3.84942e-014   XYZ
    dof rx rz
    limits (-45.0 45.0)
           (-45.0 45.0)
  end
:hierarchy
  begin
    root lhipjoint rhipjoint lowerback
    lhipjoint lfemur
    lfemur ltibia
    ltibia lfoot
    lfoot ltoes
    rhipjoint rfemur
    rfemur rtibia
    rtibia rfoot
    rfoot rtoes
    lowerback upperback
    upperback thorax
    thorax lowerneck lclavicle rclavicle
    lowerneck upperneck
    upperneck head
    lclavicle lhumerus
    lhumerus lradius
    lradius lwrist
    lwrist lhand lthumb
    lhand lfingers
    rclavicle rhumerus
    rhumerus rradius
    rradius rwrist
    rwrist rhand rthumb
    rhand rfingers
  end

#!OML:ASF H:\Terrain\Walking\May29\JustinRory\rory.ASF
:FULLY-SPECIFIED
:DEGREES
240
root 12.4272 18.2418 -10.8579 -6.59814 -10.5738 3.22144
lowerback 4.28394 0.377955 -0.756676
upperback 1.20171 0.476989 0.536885
thorax -1.17851 0.238439 0.949959
lowerneck -15.3791 -2.37384 -1.57672
upperneck 18.2941 -2.82849 -0.357372
head 8.23351 -1.49172 -0.185739
rclavicle -2.9271e-014 1.59028e-014
rhumerus -35.7808 6.62555 -88.8733
rradius 51.1412
rwrist -7.53773
rhand -26.077 39.5524
rfingers 7.12502
rthumb 0.47139 9.57323
lclavicle -2.9271e-014 1.59028e-014
lhumerus -38.4411 18.9453 74.7462
lradius 24.177
lwrist 1.7518
lhand -28.3258 19.947
lfingers 7.12502
lthumb -1.70058 49.92
rfemur -10.2684 11.2418 17.5703
rtibia 26.0222
rfoot -9.4658 -1.53856
rtoes 17.5047
lfemur -17.7006 5.76175 -16.8262
ltibia 56.3739
lfoot -0.29589 -5.32553
ltoes -14.8475
241
root 12.4426 18.2418 -10.9124 -6.3573 -10.7629 3.1558
lowerback 4.06333 0.40567 -0.718313
upperback 1.04185 0.516841 0.514141
thorax -1.21951 0.259241 0.903848
lowerneck -15.5846 -2.45826 -1.55872
upperneck 18.6129 -2.94834 -0.352283
head 8.37805 -1.54691 -0.206576
rclavicle 2.79541e-014 -3.97569e-015
rhumerus -35.7174 5.27611 -88.0886
rradius 48.9754
rwrist -7.18961
rhand -26.4765 38.9824
rfingers 7.12502
rthumb 0.0855114 9.00264
lclavicle 2.79541e-014 -3.97569e-015
lhumerus -39.2984 19.1237 74.5359
lradius 24.7382
lwrist 2.18774
lhand -28.7745 18.8356
lfingers 7.12502
lthumb -2.13394 48.8047
rfemur -10.7047 11.0631 17.5633
rtibia 25.8468
rfoot -9.09399 -1.19395
rtoes 16.4629
lfemur -17.5227 5.6325 -16.6186
ltibia 57.179
lfoot 0.558698 -6.39365
ltoes -16.0631
242
root 12.453 18.2407 -10.9707 -6.12546 -11.0104 2.8172
lowerback 3.76086 0.4358 -0.529939
upperback 0.961924 0.567139 0.595981
thorax -1.13245 0.284026 0.881443
lowerneck -15.7408 -2.51713 -1.60881
upperneck 18.8572 -3.04549 -0.214671
head 8.49236 -1.582 -0.168096
rclavicle -4.45278e-014 5.56597e-015
rhumerus -35.4302 3.99896 -87.2466
rradius 46.5219
rwrist -6.87304
rhand -26.9443 38.6348
rfingers 7.12502
rthumb -0.366332 8.65533
lclavicle -4.45278e-014 5.56597e-015
lhumerus -39.5069 20.0292 74.068
lradius 24.4447
lwrist 1.62505
lhand -28.3997 19.3296
lfingers 7.12502
lthumb -1.77196 49.302
rfemur -11.0495 11.2511 17.9127
rtibia 25.6429
rfoot -8.72641 -1.16947
rtoes 15.6112
lfemur -17.2257 5.58175 -16.0182
ltibia 57.8714
lfoot 1.75079 -7.40203
ltoes -15.1679
243
root 12.4609 18.2427 -11.0101 -6.40719 -11.055 2.95736
lowerback 3.61728 0.402621 -0.872393
upperback 0.970271 0.510999 0.606329
thorax -1.04554 0.256176 1.08779
lowerneck -15.1688 -2.54513 -1.86229
upperneck 18.6004 -3.08407 0.0228632
head 8.31173 -1.59533 -0.0414641
rclavicle -1.47349e-014 5.56597e-015
rhumerus -35.4066 2.74498 -86.3496
rradius 44.1581
rwrist -7.05885
rhand -26.9723 38.0315
rfingers 7.12502
rthumb -0.393299 8.05211
lclavicle -1.47349e-014 5.56597e-015
lhumerus -39.4534 20.9635 73.5427
lradius 23.5052
lwrist 1.02602
lhand -27.6504 20.4817
lfingers 7.12502
lthumb -1.04822 50.4589
rfemur -10.7874 11.3492 17.7829
rtibia 25.4147
rfoot -8.50457 -1.07319
rtoes 15.3871
lfemur -16.269 5.17787 -15.9694
ltibia 58.3393
lfoot 2.75245 -8.18248
ltoes -12.9943
244
root 12.4706 18.2455 -11.0481 -6.60731 -11.0522 3.13712
lowerback 3.56619 0.455752 -1.14785
upperback 0.914912 0.57295 0.656414
thorax -1.07843 0.288161 1.29106
lowerneck -14.8345 -2.75468 -2.35877
upperneck 18.4537 -3.27709 0.0942114
head 8.21534 -1.71542 0.0473435
rclavicle -2.89977e-014 -3.97569e-015
rhumerus -35.4822 1.00231 -85.0735
rradius 41.8467
rwrist -6.88435
rhand -27.0665 37.0547
rfingers 7.12502
rthumb -0.484344 7.07555
lclavicle -2.89977e-014 -3.97569e-015
lhumerus -39.4566 21.8612 73.257
lradius 22.9012
lwrist 0.268959
lhand -27.1563 20.306
lfingers 7.12502
lthumb -0.571066 50.285
rfemur -10.6113 11.1486 17.5751
rtibia 25.1539
rfoot -8.20265 -0.724062
rtoes 15.3721
lfemur -15.3876 4.65267 -16.0519
ltibia 58.6833
lfoot 3.86991 -8.80779
ltoes -11.5669
